HIERARCHY
ROOT Root
{
  OFFSET 0.0 0.0 0.0
  CHANNELS 6 Xposition Yposition Zposition Zrotation Yrotation Xrotation
  JOINT Hips
  {
    OFFSET 0.0 100.0 0.0
    CHANNELS 6 Xposition Yposition Zposition Zrotation Yrotation Xrotation
    JOINT Spine1
    {
      OFFSET 5.003913 -0.037094 -0.013727
      CHANNELS 3 Zrotation Yrotation Xrotation
      JOINT Spine2
      {
        OFFSET 7.125363 -1e-06 0.0
        CHANNELS 3 Zrotation Yrotation Xrotation
        JOINT Chest
        {
          OFFSET 7.594027 1e-06 0.0
          CHANNELS 3 Zrotation Yrotation Xrotation
          JOINT Neck1
          {
            OFFSET 26.313086 -0.460272 -0.181672
            CHANNELS 3 Zrotation Yrotation Xrotation
            JOINT Neck2
            {
              OFFSET 8.045911 0.0 0.0
              CHANNELS 3 Zrotation Yrotation Xrotation
              JOINT Head
              {
                OFFSET 6.432774 0.0 0.0
                CHANNELS 3 Zrotation Yrotation Xrotation
                JOINT HeadEnd
                {
                  OFFSET 16.169773 0.06451 0.00362
                  CHANNELS 3 Zrotation Yrotation Xrotation
                }
                JOINT Jaw
                {
                  OFFSET 0.108741 3.12938 0.002639
                  CHANNELS 3 Zrotation Yrotation Xrotation
                }
                JOINT LeftEye
                {
                  OFFSET 4.45173 8.166359 3.206392
                  CHANNELS 3 Zrotation Yrotation Xrotation
                }
                JOINT RightEye
                {
                  OFFSET 4.436895 8.135758 -3.222429
                  CHANNELS 3 Zrotation Yrotation Xrotation
                }
              }
            }
          }
          JOINT LeftShoulder
          {
            OFFSET 23.218927 5.195579 1.621656
            CHANNELS 3 Zrotation Yrotation Xrotation
            JOINT LeftArm
            {
              OFFSET 15.902118 2e-06 -2e-06
              CHANNELS 3 Zrotation Yrotation Xrotation
              JOINT LeftForeArm
              {
                OFFSET 28.739307 0.0 -1e-06
                CHANNELS 3 Zrotation Yrotation Xrotation
                JOINT LeftHand
                {
                  OFFSET 27.093981 -4e-06 0.0
                  CHANNELS 3 Zrotation Yrotation Xrotation
                  JOINT LeftHandThumb1
                  {
                    OFFSET 2.276781 3.380274 0.83384
                    CHANNELS 3 Zrotation Yrotation Xrotation
                    JOINT LeftHandThumb2
                    {
                      OFFSET 4.705309 -1e-06 -1e-06
                      CHANNELS 3 Zrotation Yrotation Xrotation
                      JOINT LeftHandThumb3
                      {
                        OFFSET 2.798515 0.0 3e-06
                        CHANNELS 3 Zrotation Yrotation Xrotation
                        JOINT LeftHandThumbEnd
                        {
                          OFFSET 3.180793 4e-06 -4e-06
                          CHANNELS 3 Zrotation Yrotation Xrotation
                        }
                      }
                    }
                  }
                  JOINT LeftHandIndex1
                  {
                    OFFSET 3.247786 2.352677 0.137192
                    CHANNELS 3 Zrotation Yrotation Xrotation
                    JOINT LeftHandIndex2
                    {
                      OFFSET 6.367095 1e-06 0.0
                      CHANNELS 3 Zrotation Yrotation Xrotation
                      JOINT LeftHandIndex3
                      {
                        OFFSET 3.662364 0.0 0.0
                        CHANNELS 3 Zrotation Yrotation Xrotation
                        JOINT LeftHandIndex4
                        {
                          OFFSET 2.329242 4e-06 -4e-06
                          CHANNELS 3 Zrotation Yrotation Xrotation
                          JOINT LeftHandIndexEnd
                          {
                            OFFSET 2.767823 1e-06 0.0
                            CHANNELS 3 Zrotation Yrotation Xrotation
                          }
                        }
                      }
                    }
                  }
                  JOINT LeftHandMiddle1
                  {
                    OFFSET 3.163612 0.945023 -0.406112
                    CHANNELS 3 Zrotation Yrotation Xrotation
                    JOINT LeftHandMiddle2
                    {
                      OFFSET 6.276789 3e-06 0.0
                      CHANNELS 3 Zrotation Yrotation Xrotation
                      JOINT LeftHandMiddle3
                      {
                        OFFSET 4.35652 -1e-06 4e-06
                        CHANNELS 3 Zrotation Yrotation Xrotation
                        JOINT LeftHandMiddle4
                        {
                          OFFSET 2.996877 0.0 8e-06
                          CHANNELS 3 Zrotation Yrotation Xrotation
                          JOINT LeftHandMiddleEnd
                          {
                            OFFSET 2.323256 3e-06 -4e-06
                            CHANNELS 3 Zrotation Yrotation Xrotation
                          }
                        }
                      }
                    }
                  }
                  JOINT LeftHandRing1
                  {
                    OFFSET 2.882606 -0.309162 0.107445
                    CHANNELS 3 Zrotation Yrotation Xrotation
                    JOINT LeftHandRing2
                    {
                      OFFSET 6.033198 0.0 4e-06
                      CHANNELS 3 Zrotation Yrotation Xrotation
                      JOINT LeftHandRing3
                      {
                        OFFSET 4.350578 3e-06 0.0
                        CHANNELS 3 Zrotation Yrotation Xrotation
                        JOINT LeftHandRing4
                        {
                          OFFSET 2.651321 2e-06 -7e-06
                          CHANNELS 3 Zrotation Yrotation Xrotation
                          JOINT LeftHandRingEnd
                          {
                            OFFSET 1.937663 1e-06 -4e-06
                            CHANNELS 3 Zrotation Yrotation Xrotation
                          }
                        }
                      }
                    }
                  }
                  JOINT LeftHandPinky1
                  {
                    OFFSET 2.865315 -1.525436 0.575687
                    CHANNELS 3 Zrotation Yrotation Xrotation
                    JOINT LeftHandPinky2
                    {
                      OFFSET 5.54936 1e-06 -8e-06
                      CHANNELS 3 Zrotation Yrotation Xrotation
                      JOINT LeftHandPinky3
                      {
                        OFFSET 3.070974 0.0 -4e-06
                        CHANNELS 3 Zrotation Yrotation Xrotation
                        JOINT LeftHandPinky4
                        {
                          OFFSET 1.549672 1e-06 0.0
                          CHANNELS 3 Zrotation Yrotation Xrotation
                          JOINT LeftHandPinkyEnd
                          {
                            OFFSET 1.952123 0.0 0.0
                            CHANNELS 3 Zrotation Yrotation Xrotation
                          }
                        }
                      }
                    }
                  }
                }
              }
            }
          }
          JOINT RightShoulder
          {
            OFFSET 23.161716 5.296122 -1.380114
            CHANNELS 3 Zrotation Yrotation Xrotation
            JOINT RightArm
            {
              OFFSET -16.027195 -2e-06 1.1e-05
              CHANNELS 3 Zrotation Yrotation Xrotation
              JOINT RightForeArm
              {
                OFFSET -28.736639 4e-06 2e-06
                CHANNELS 3 Zrotation Yrotation Xrotation
                JOINT RightHand
                {
                  OFFSET -27.133619 6e-06 0.0
                  CHANNELS 3 Zrotation Yrotation Xrotation
                  JOINT RightHandThumb1
                  {
                    OFFSET -2.274328 -3.351035 -0.83067
                    CHANNELS 3 Zrotation Yrotation Xrotation
                    JOINT RightHandThumb2
                    {
                      OFFSET -4.703594 -3e-06 2e-06
                      CHANNELS 3 Zrotation Yrotation Xrotation
                      JOINT RightHandThumb3
                      {
                        OFFSET -2.794935 -4e-06 -3e-06
                        CHANNELS 3 Zrotation Yrotation Xrotation
                        JOINT RightHandThumbEnd
                        {
                          OFFSET -3.183852 4e-06 1e-06
                          CHANNELS 3 Zrotation Yrotation Xrotation
                        }
                      }
                    }
                  }
                  JOINT RightHandIndex1
                  {
                    OFFSET -3.253496 -2.33755 -0.127667
                    CHANNELS 3 Zrotation Yrotation Xrotation
                    JOINT RightHandIndex2
                    {
                      OFFSET -6.344434 0.0 0.0
                      CHANNELS 3 Zrotation Yrotation Xrotation
                      JOINT RightHandIndex3
                      {
                        OFFSET -3.654871 0.0 -8e-06
                        CHANNELS 3 Zrotation Yrotation Xrotation
                        JOINT RightHandIndex4
                        {
                          OFFSET -2.327586 -1e-06 0.0
                          CHANNELS 3 Zrotation Yrotation Xrotation
                          JOINT RightHandIndexEnd
                          {
                            OFFSET -2.770001 3e-06 8e-06
                            CHANNELS 3 Zrotation Yrotation Xrotation
                          }
                        }
                      }
                    }
                  }
                  JOINT RightHandMiddle1
                  {
                    OFFSET -3.168223 -0.944764 0.411762
                    CHANNELS 3 Zrotation Yrotation Xrotation
                    JOINT RightHandMiddle2
                    {
                      OFFSET -6.266691 -1e-06 -4e-06
                      CHANNELS 3 Zrotation Yrotation Xrotation
                      JOINT RightHandMiddle3
                      {
                        OFFSET -4.348901 0.0 0.0
                        CHANNELS 3 Zrotation Yrotation Xrotation
                        JOINT RightHandMiddle4
                        {
                          OFFSET -3.00024 2e-06 -4e-06
                          CHANNELS 3 Zrotation Yrotation Xrotation
                          JOINT RightHandMiddleEnd
                          {
                            OFFSET -2.321477 -4e-06 -4e-06
                            CHANNELS 3 Zrotation Yrotation Xrotation
                          }
                        }
                      }
                    }
                  }
                  JOINT RightHandRing1
                  {
                    OFFSET -2.885654 0.293261 -0.119232
                    CHANNELS 3 Zrotation Yrotation Xrotation
                    JOINT RightHandRing2
                    {
                      OFFSET -6.032835 -1e-06 -4e-06
                      CHANNELS 3 Zrotation Yrotation Xrotation
                      JOINT RightHandRing3
                      {
                        OFFSET -4.33881 0.0 -4e-06
                        CHANNELS 3 Zrotation Yrotation Xrotation
                        JOINT RightHandRing4
                        {
                          OFFSET -2.654903 -4e-06 -4e-06
                          CHANNELS 3 Zrotation Yrotation Xrotation
                          JOINT RightHandRingEnd
                          {
                            OFFSET -1.935122 0.0 4e-06
                            CHANNELS 3 Zrotation Yrotation Xrotation
                          }
                        }
                      }
                    }
                  }
                  JOINT RightHandPinky1
                  {
                    OFFSET -2.866241 1.503904 -0.60527
                    CHANNELS 3 Zrotation Yrotation Xrotation
                    JOINT RightHandPinky2
                    {
                      OFFSET -5.553177 -2e-06 0.0
                      CHANNELS 3 Zrotation Yrotation Xrotation
                      JOINT RightHandPinky3
                      {
                        OFFSET -3.062664 -1e-06 -4e-06
                        CHANNELS 3 Zrotation Yrotation Xrotation
                        JOINT RightHandPinky4
                        {
                          OFFSET -1.546529 2e-06 4e-06
                          CHANNELS 3 Zrotation Yrotation Xrotation
                          JOINT RightHandPinkyEnd
                          {
                            OFFSET -1.952341 0.0 -4e-06
                            CHANNELS 3 Zrotation Yrotation Xrotation
                          }
                        }
                      }
                    }
                  }
                }
              }
            }
          }
        }
      }
    }
    JOINT LeftLeg
    {
      OFFSET -8.443107 2.567604 10.043214
      CHANNELS 3 Zrotation Yrotation Xrotation
      JOINT LeftShin
      {
        OFFSET 43.229198 1e-06 -1e-06
        CHANNELS 3 Zrotation Yrotation Xrotation
        JOINT LeftFoot
        {
          OFFSET 42.298611 1e-06 1e-06
          CHANNELS 3 Zrotation Yrotation Xrotation
          JOINT LeftToeBase
          {
            OFFSET 14.165858 1e-06 0.0
            CHANNELS 3 Zrotation Yrotation Xrotation
            JOINT LeftToeEnd
            {
              OFFSET 6.7141 -0.234461 0.0
              CHANNELS 3 Zrotation Yrotation Xrotation
            }
          }
        }
      }
    }
    JOINT RightLeg
    {
      OFFSET -8.303923 2.592729 -10.047278
      CHANNELS 3 Zrotation Yrotation Xrotation
      JOINT RightShin
      {
        OFFSET -43.369682 0.0 1e-06
        CHANNELS 3 Zrotation Yrotation Xrotation
        JOINT RightFoot
        {
          OFFSET -42.260784 4e-06 2e-06
          CHANNELS 3 Zrotation Yrotation Xrotation
          JOINT RightToeBase
          {
            OFFSET -14.222245 -2e-06 -1e-06
            CHANNELS 3 Zrotation Yrotation Xrotation
            JOINT RightToeEnd
            {
              OFFSET -6.660062 0.232574 -2e-06
              CHANNELS 3 Zrotation Yrotation Xrotation
            }
          }
        }
      }
    }
  }
}
MOTION
Frames: 4
Frame Time: 0.03333333333333333
0.0 0.0 0.0 0.0 -0.0 0.0 5.619921 100.112442 0.418973 90.887932 1.186525 89.990456 -0.443844 -0.930804 0.069903 -11.31962 -0.767026 0.474504 21.405323 -0.13764 -1.636085 16.384237 -1.516372 2.854595 -2.506768 -0.515352 2.592677 -33.616875 0.440197 2.730524 6e-06 -0.0 -0.0 -0.005828 0.012121 -0.091675 -0.041853 0.022065 -0.118842 -0.060259 -0.000208 -0.058398 -85.974747 -74.035324 104.011017 63.666264 -60.178551 -11.010135 26.556541 -0.253397 0.081585 0.794177 2.10927 4.626148 17.636625 -26.322733 52.411201 -19.466656 -14.395597 29.410385 -0.0 -8.774819 -2e-06 16.074183 -18.096973 6.168807 -0.609776 -1.795653 -3.889328 -4.807088 -11.046807 -2.937851 3e-06 -20.976011 0.0 -5.01997 -25.033546 -4.031878 6e-06 2e-06 1e-06 -10.634532 -5.68697 -3.565591 10.573271 -17.922947 -3.113899 1e-06 -13.821205 1e-06 -0.501779 -31.181498 -4.027015 -11.971334 -59.991531 7.799037 -13.982711 -7.150198 -2.875047 13.772726 -8.401489 -3.218242 0.347731 -34.211544 0.771658 -0.963031 -17.733366 2.62102 0.0 -1e-06 1e-06 -17.346413 -20.095213 -4.201784 21.757555 -1.638373 3.866428 2e-06 -6.338821 -1e-06 -1.697587 -22.591742 -6.194009 -2e-06 -4e-06 2e-06 74.319969 -81.233414 125.149597 65.208305 -60.493 -22.034597 26.058325 -0.009656 0.008655 -1.37235 10.48044 4.592227 22.182108 -20.375895 49.933319 -16.701809 -16.74353 28.476522 -3e-06 -12.6906 -0.0 16.162132 -17.668118 2.64416 -0.10592 -1.513855 -4.275883 -5.03904 -5.612869 -2.953554 4e-06 -11.02052 -3e-06 -6.111299 -15.895329 -3.840468 0.0 -0.0 -1e-06 -10.283367 -5.680287 -4.341841 11.028294 -11.302403 -2.372632 -1.384269 -14.238578 -6.32012 -0.625437 -26.924183 -3.8276 -4.153257 -49.456593 -3.839564 -13.708524 -7.363475 -3.720937 18.141146 -14.052736 -3.242676 6e-06 -18.787268 -1e-06 -0.429713 -8.456042 2.555504 1e-06 0.0 -1e-06 -15.923532 -20.094482 -5.473584 30.41921 -7.190825 1.735924 1e-06 -8.162924 1e-06 -1.861902 -22.861471 -6.16794 -2e-06 -1e-06 -1e-06 -175.909515 -5.602672 -10.666246 5.555674 0.008597 0.004015 -75.232193 1.503314 -6.114736 -4.417481 1.479048 2.146072 -1.000001 0.0 0.0 -0.446869 -6.295979 -10.694419 12.622253 0.022029 -0.002329 -78.696785 -3.142276 -7.561195 -3.976489 0.663691 1.672237 -1.000003 1e-06 -0.0 
0.0 0.0 0.0 0.0 -0.0 0.0 5.674429 100.131439 0.3687 90.898132 1.133294 90.002846 -0.393789 -0.946724 0.052521 -11.281127 -0.764234 0.497617 21.370743 -0.124356 -1.692349 16.260008 -1.498689 2.818834 -2.486833 -0.516028 2.600732 -33.641785 0.351235 2.757332 6e-06 0.0 -0.0 -0.006315 0.011992 -0.072368 -0.028637 0.033035 -0.096129 -0.046943 -0.011412 -0.042832 -85.410812 -74.062393 103.513794 64.194069 -60.251743 -11.616952 26.425936 -0.258392 0.049677 0.866704 2.126385 4.84217 17.636631 -26.322733 52.411194 -19.46666 -14.395597 29.410389 -0.0 -8.774821 -2e-06 16.076067 -18.072012 6.153522 -0.609777 -1.795654 -3.889328 -4.807089 -11.046811 -2.937852 2e-06 -20.976019 1e-06 -5.019974 -25.033556 -4.03188 6e-06 0.0 1e-06 -10.634535 -5.686972 -3.565587 10.573275 -17.922951 -3.113901 2e-06 -13.82121 2e-06 -0.501779 -31.181507 -4.027015 -11.942619 -59.974102 7.854589 -13.982716 -7.1502 -2.875041 13.772731 -8.401492 -3.218241 0.347731 -34.211555 0.771658 -0.963031 -17.733372 2.62102 -1e-06 -1e-06 -0.0 -17.346418 -20.095219 -4.20178 21.757557 -1.638374 3.866427 2e-06 -6.338823 0.0 -1.697588 -22.591745 -6.194005 -2e-06 -1e-06 1e-06 74.783295 -81.264099 124.748192 65.587334 -60.392723 -22.604372 25.758841 -0.077768 -0.008266 -1.283989 10.358284 4.61698 22.182121 -20.375898 49.933327 -16.701813 -16.743528 28.476532 -4e-06 -12.690601 -2e-06 16.179092 -17.661919 2.629515 -0.10592 -1.513857 -4.275881 -5.039041 -5.612871 -2.953555 4e-06 -11.020524 -3e-06 -6.111297 -15.895332 -3.840473 -0.0 0.0 -2e-06 -10.283371 -5.680288 -4.341839 11.028296 -11.302405 -2.372633 -1.38427 -14.238581 -6.320123 -0.625437 -26.924189 -3.8276 -4.168475 -49.54612 -3.831989 -13.708528 -7.363477 -3.720937 18.141153 -14.052739 -3.242677 8e-06 -18.787271 -1e-06 -0.429712 -8.456047 2.555507 0.0 1e-06 -0.0 -15.923538 -20.094484 -5.473587 30.419218 -7.190829 1.735926 2e-06 -8.162924 1e-06 -1.8619 -22.861469 -6.167942 -0.0 -3e-06 -0.0 -175.965424 -5.585971 -10.650453 5.540743 0.02108 0.041434 -75.162857 1.536929 -6.134733 -4.425067 1.498637 2.156533 -0.999999 0.0 -0.0 -0.458159 -6.31533 -10.649566 12.453299 0.01548 0.016509 -78.48484 -3.264317 -7.553929 -3.970703 0.641362 1.670604 -1.000002 1e-06 0.0 
0.0 0.0 0.0 0.0 -0.0 0.0 5.741137 100.137833 0.300174 90.921585 1.082719 89.997368 -0.34394 -0.968926 0.047675 -11.259117 -0.767652 0.501954 21.391035 -0.114136 -1.723826 16.123211 -1.502366 2.817859 -2.513665 -0.503728 2.579192 -33.619812 0.257189 2.751726 6e-06 0.0 0.0 -0.007796 0.01182 -0.069158 -0.037545 0.038194 -0.090536 -0.051562 -0.017316 -0.042529 -84.929443 -74.086136 103.049629 64.511093 -60.324368 -12.006171 26.364691 -0.252903 0.01691 0.879613 2.109531 4.800967 17.636625 -26.322735 52.411201 -19.466656 -14.395597 29.410389 0.0 -8.774821 -2e-06 16.082993 -18.098783 6.158735 -0.609776 -1.795653 -3.889327 -4.80709 -11.046809 -2.937853 2e-06 -20.976015 -0.0 -5.019973 -25.033552 -4.031882 5e-06 0.0 1e-06 -10.634533 -5.686969 -3.565587 10.573271 -17.922947 -3.113901 1e-06 -13.821205 1e-06 -0.50178 -31.181501 -4.027014 -11.97432 -59.942909 7.865607 -13.982714 -7.150198 -2.875044 13.772728 -8.40149 -3.218239 0.347728 -34.211544 0.771659 -0.96303 -17.73337 2.621018 -1e-06 -1e-06 1e-06 -17.34642 -20.095217 -4.201783 21.757557 -1.638374 3.866428 2e-06 -6.338821 -2e-06 -1.697591 -22.591745 -6.194004 -2e-06 -2e-06 1e-06 74.972946 -81.312164 124.591751 65.80809 -60.309032 -23.062895 25.515951 -0.150763 -0.017698 -1.278029 10.317157 4.563819 22.182114 -20.375891 49.933315 -16.701815 -16.743528 28.476532 -2e-06 -12.690601 -2e-06 16.203707 -17.643799 2.620919 -0.10592 -1.513856 -4.275882 -5.039042 -5.612873 -2.953554 3e-06 -11.020523 -3e-06 -6.1113 -15.895332 -3.84047 1e-06 -1e-06 -0.0 -10.283373 -5.68029 -4.341837 11.028295 -11.302404 -2.372632 -1.384271 -14.238583 -6.320123 -0.625439 -26.924194 -3.827601 -4.183373 -49.573189 -3.838348 -13.708527 -7.363476 -3.720938 18.14115 -14.052737 -3.242676 6e-06 -18.78727 -3e-06 -0.429712 -8.456043 2.555504 2e-06 0.0 -2e-06 -15.923538 -20.094486 -5.473586 30.41921 -7.190824 1.735929 2e-06 -8.162922 -1e-06 -1.861902 -22.861473 -6.167941 -2e-06 -2e-06 -3e-06 -176.025116 -5.551209 -10.631318 5.538162 0.025063 0.060785 -75.138985 1.547625 -6.122636 -4.378933 1.509016 2.166814 -1.0 -0.0 -0.0 -0.570081 -6.383003 -10.618611 12.472665 0.013887 0.019286 -78.424522 -3.379817 -7.566417 -3.927673 0.633104 1.671169 -1.000002 1e-06 0.0 
0.0 0.0 0.0 0.0 -0.0 0.0 5.768854 100.144592 0.239786 90.937859 1.031677 89.987396 -0.29232 -0.9966 0.042998 -11.24565 -0.765769 0.501919 21.431618 -0.104713 -1.728665 16.005762 -1.525565 2.809951 -2.545228 -0.488881 2.567649 -33.644222 0.173249 2.736889 5e-06 0.0 0.0 -0.009206 0.011001 -0.073121 -0.053642 0.041437 -0.093389 -0.064253 -0.022584 -0.048107 -84.500702 -74.11274 102.634552 64.726944 -60.362038 -12.236973 26.334538 -0.227814 0.006684 0.860206 2.127611 4.737321 17.636629 -26.322733 52.411198 -19.466658 -14.3956 29.410395 0.0 -8.774822 -3e-06 16.064182 -18.104483 6.176699 -0.609778 -1.795653 -3.889328 -4.807088 -11.046811 -2.937852 5e-06 -20.976015 -1e-06 -5.019972 -25.033558 -4.031878 6e-06 2e-06 1e-06 -10.634535 -5.68697 -3.565588 10.573274 -17.922949 -3.113901 3e-06 -13.821206 2e-06 -0.501781 -31.181501 -4.027012 -11.990246 -59.912994 7.854773 -13.982716 -7.150197 -2.875043 13.772731 -8.401491 -3.218243 0.347731 -34.211544 0.771658 -0.963031 -17.73337 2.621021 -1e-06 -1e-06 1e-06 -17.346422 -20.095217 -4.201782 21.757561 -1.638376 3.866431 2e-06 -6.338823 -0.0 -1.697589 -22.591747 -6.194005 -2e-06 -2e-06 1e-06 75.117462 -81.355278 124.461937 65.925812 -60.256317 -23.369959 25.337337 -0.178183 -0.016168 -1.332466 10.245033 4.41462 22.182108 -20.375896 49.933327 -16.701811 -16.74353 28.47653 -3e-06 -12.6906 -2e-06 16.223167 -17.620697 2.619056 -0.105919 -1.513856 -4.275882 -5.03904 -5.612871 -2.953555 5e-06 -11.020521 -3e-06 -6.111297 -15.89533 -3.84047 0.0 -0.0 1e-06 -10.283369 -5.680288 -4.34184 11.028293 -11.302406 -2.372632 -1.384268 -14.238581 -6.320122 -0.625436 -26.924191 -3.8276 -4.205364 -49.560711 -3.820039 -13.708524 -7.363476 -3.720939 18.14115 -14.052739 -3.242678 7e-06 -18.78727 1e-06 -0.429711 -8.456045 2.555505 2e-06 -1e-06 -0.0 -15.923536 -20.094481 -5.473586 30.41921 -7.190827 1.735927 4e-06 -8.162922 -2e-06 -1.861902 -22.861467 -6.167942 0.0 -5e-06 0.0 -176.095535 -5.526009 -10.636835 5.539095 0.022989 0.066383 -75.10939 1.559402 -6.10931 -4.345915 1.511242 2.169479 -0.999997 0.0 0.0 -0.680979 -6.422218 -10.620841 12.499274 0.012254 0.00852 -78.371872 -3.44287 -7.555697 -3.898665 0.628067 1.671169 -1.000001 -0.0 0.0 
